<?xml version="1.0" encoding="UTF-8"?>
<svg id="Layer_1" data-name="Layer 1" xmlns="http://www.w3.org/2000/svg" viewBox="0 0 478.73 275.97">
  <defs>
    <style>
      .cls-1 {
        fill: none;
      }

      .cls-2 {
        fill: #fff;
      }

      .cls-3 {
        fill: #9a2f40;
      }

      .cls-4 {
        fill: #203163;
      }
    </style>
  </defs>
  <rect class="cls-4" x="-5.82" y="-6.89" width="494.84" height="290.6"/>
  <g>
    <g>
      <path class="cls-2" d="M135.36,216.55h-13.52l-13.35-59.81h15.6l6.5,35.71,10.58-35.71h12.57l10.84,35.97,6.5-35.97h15.6l-13.35,59.81h-13.61l-12.22-38.66-12.14,38.66Z"/>
      <path class="cls-2" d="M206.5,216.55h-12.12v-50.37h12.12v50.37Z"/>
      <path class="cls-2" d="M245.19,216.55l-10.88-19.34-4.38,5.99v13.36h-12.12v-50.37h12.12v18.69l12.99-18.69h14.09l-14.89,20.37,17.52,30h-14.45Z"/>
      <path class="cls-2" d="M279.79,216.55h-12.12v-50.37h12.12v50.37Z"/>
      <path class="cls-2" d="M306.32,179.62h18.38v-22.88h14.39v59.81h-14.39v-24.96h-18.38v24.96h-14.39v-59.81h14.39v22.88Z"/>
      <path class="cls-2" d="M390.54,166.18v30c0,14.89-8.69,21.1-19.86,21.1s-19.86-6.21-19.86-21.02v-30.08h12.12v30.08c0,7.37,2.19,10.95,7.74,10.95s7.74-3.58,7.74-10.95v-30.08h12.12Z"/>
      <path class="cls-2" d="M426.02,191.73l13.58-25.55h11.31v50.37h-11.39v-28.47l-10.37,20.15h-6.5l-10.15-19.93v28.25h-11.39v-50.37h11.24l13.65,25.55Z"/>
    </g>
    <g>
      <circle class="cls-1" cx="56.9" cy="61.19" r="9.3"/>
      <circle class="cls-1" cx="153.23" cy="55.24" r="12.69"/>
      <circle class="cls-1" cx="46.46" cy="186.67" r="13.37"/>
      <circle class="cls-1" cx="127.89" cy="116.21" r="18.12"/>
      <path class="cls-1" d="M198.54,124.34c-3.59,0-6.49,2.91-6.49,6.49s2.91,6.49,6.49,6.49,6.49-2.91,6.49-6.49-2.91-6.49-6.49-6.49Z"/>
      <path class="cls-3" d="M198.54,114.3c-5.82,0-10.93,3.02-13.88,7.57l-26.73-5.36c0-.1,.02-.21,.02-.31,0-10.25-5.14-19.3-12.98-24.73l5.08-12.65c1.04,.14,2.1,.24,3.18,.24,13.16,0,23.83-10.67,23.83-23.83s-10.67-23.83-23.83-23.83-23.83,10.67-23.83,23.83c0,7.7,3.67,14.53,9.34,18.89l-5.06,12.59c-1.88-.37-3.82-.57-5.81-.57-7.7,0-14.71,2.92-20.03,7.69l-30.87-23.97c1.15-2.66,1.79-5.59,1.79-8.67,0-12.08-9.8-21.88-21.88-21.88s-21.88,9.8-21.88,21.88,9.8,21.88,21.88,21.88c4.55,0,8.78-1.39,12.28-3.77l31.4,24.38c-1.76,3.82-2.76,8.05-2.76,12.53,0,5.12,1.29,9.93,3.54,14.15l-42.08,35.05c-3.75-2.27-8.13-3.6-12.83-3.6-13.72,0-24.84,11.12-24.84,24.84s11.12,24.84,24.84,24.84,24.84-11.12,24.84-24.84c0-4.56-1.25-8.82-3.4-12.5l41.31-34.41c5.13,4.07,11.61,6.52,18.67,6.52,12.23,0,22.73-7.32,27.43-17.8l26.99,5.41c1.43,7.67,8.15,13.48,16.24,13.48,9.13,0,16.53-7.4,16.53-16.53s-7.4-16.53-16.53-16.53ZM56.9,70.49c-5.14,0-9.3-4.16-9.3-9.3s4.16-9.3,9.3-9.3,9.3,4.16,9.3,9.3-4.16,9.3-9.3,9.3Zm-10.45,129.54c-7.38,0-13.37-5.99-13.37-13.37s5.99-13.37,13.37-13.37,13.37,5.99,13.37,13.37-5.99,13.37-13.37,13.37ZM153.23,42.55c7.01,0,12.69,5.68,12.69,12.69s-5.68,12.69-12.69,12.69-12.69-5.68-12.69-12.69,5.68-12.69,12.69-12.69Zm-25.35,91.77c-10,0-18.12-8.11-18.12-18.12s8.11-18.12,18.12-18.12,18.12,8.11,18.12,18.12-8.11,18.12-18.12,18.12Zm70.66,3c-3.59,0-6.49-2.91-6.49-6.49s2.91-6.49,6.49-6.49,6.49,2.91,6.49,6.49-2.91,6.49-6.49,6.49Z"/>
    </g>
  </g>
</svg>